<svg width="25" height="25" xmlns="http://www.w3.org/2000/svg">
 <g>
  <title>Layer 1</title>
  <path id="svg_6" d="m9.38436,11.26429c0.05916,-7.04006 2.42557,-7.51334 2.40338,-7.53553c0.25966,-0.92769 4.87332,0.02219 4.87332,5.52408c0,5.5019 -0.41412,4.02289 -0.43631,4.00071c-1.16515,3.99977 -0.51025,3.276 0.19967,3.51264c0.70992,0.23664 1.41984,-5.91602 2.72137,-2.83969c1.30152,3.07633 5.02862,3.54961 1.53816,6.15266c-3.49045,2.60305 -9.16983,1.36068 -9.99807,-0.23664c-0.82824,-1.59732 0.17748,0.70992 -2.36641,1.06488c-2.54389,0.35496 -6.92174,-2.07061 -4.96945,-4.02289c1.95229,-1.95229 -0.05916,-4.73281 4.14121,-3.31297c4.20037,1.41984 1.83397,4.73281 1.89313,-2.30725z" opacity="NaN" stroke="#000" fill="#FFDCEC"/>
  <line id="svg_8" y2="6.88776" x2="12.90816" y1="3.41837" x1="12.70408" stroke="#000" fill="none"/>
  <line id="svg_9" y2="6.92177" x2="12.97619" y1="6.81973" x1="10.05102" stroke="#000" fill="none"/>
  <line id="svg_10" y2="6.9898" x2="12.94218" y1="6.78571" x1="16.27551" stroke="#000" fill="none"/>
 </g>

</svg>